#tb 0: 1/7
#media_type 0: video
#codec_id 0: rawvideo
#dimensions 0: 320x240
#sar 0: 1/1
0,          0,          0,        1,   115200, 0xeba70ff3
0,          7,          7,        1,   115200, 0x1dadb3a3
0,         14,         14,        1,   115200, 0xb8cdb7ac
0,         21,         21,        1,   115200, 0xb789c3ba
0,         28,         28,        1,   115200, 0xd1084e35
0,         35,         35,        1,   115200, 0x7bbb8ede
0,         42,         42,        1,   115200, 0x939ba4bd
